<mxfile host="Electron" agent="Mozilla/5.0 (Windows NT 10.0; Win64; x64) AppleWebKit/537.36 (KHTML, like Gecko) draw.io/24.7.5 Chrome/126.0.6478.183 Electron/31.3.0 Safari/537.36" version="24.7.5">
  <diagram name="Page-1" id="M9cS0in70BmRYI258GHn">
    <mxGraphModel dx="1235" dy="740" grid="1" gridSize="10" guides="1" tooltips="1" connect="1" arrows="1" fold="1" page="1" pageScale="1" pageWidth="827" pageHeight="1169" math="0" shadow="0">
      <root>
        <mxCell id="0" />
        <mxCell id="1" parent="0" />
        <mxCell id="hJRkpqd8FvlUz38hZ03f-251" value="" style="rounded=1;whiteSpace=wrap;html=1;arcSize=6;strokeWidth=3;strokeColor=#E6E6E6;" vertex="1" parent="1">
          <mxGeometry x="330" y="250" width="1010" height="683.44" as="geometry" />
        </mxCell>
        <mxCell id="hJRkpqd8FvlUz38hZ03f-175" value="&lt;font style=&quot;font-size: 13px;&quot; face=&quot;Verdana&quot;&gt;pull&lt;/font&gt;" style="text;html=1;align=center;verticalAlign=middle;whiteSpace=wrap;rounded=1;strokeColor=#3a2f3c;fillColor=#c6dbb2;opacity=70;strokeWidth=2;perimeterSpacing=0;" vertex="1" parent="1">
          <mxGeometry x="1025" y="724.41" width="45" height="30" as="geometry" />
        </mxCell>
        <mxCell id="C1bDnNV0KDtn2LW1OjTP-10" value="" style="rounded=1;whiteSpace=wrap;html=1;fillColor=#FFE6CC;strokeColor=#FF9933;strokeWidth=3;" parent="1" vertex="1">
          <mxGeometry x="490" y="428.5" width="690" height="120" as="geometry" />
        </mxCell>
        <mxCell id="C1bDnNV0KDtn2LW1OjTP-12" value="" style="rounded=1;whiteSpace=wrap;html=1;fillColor=#d5e8d4;strokeColor=#82b366;strokeWidth=3;" parent="1" vertex="1">
          <mxGeometry x="490" y="776.5" width="690" height="120" as="geometry" />
        </mxCell>
        <mxCell id="C1bDnNV0KDtn2LW1OjTP-11" value="" style="rounded=1;whiteSpace=wrap;html=1;fillColor=#FFCCCC;strokeColor=#FF9999;strokeWidth=3;" parent="1" vertex="1">
          <mxGeometry x="490" y="574.41" width="690" height="120" as="geometry" />
        </mxCell>
        <mxCell id="hJRkpqd8FvlUz38hZ03f-11" value="&lt;font style=&quot;font-size: 13px;&quot; face=&quot;Verdana&quot;&gt;&amp;nbsp;push&lt;/font&gt;" style="text;html=1;align=center;verticalAlign=middle;whiteSpace=wrap;rounded=1;strokeColor=#3a2f3c;fillColor=#d4d0b1;opacity=70;strokeWidth=2;perimeterSpacing=0;" vertex="1" parent="1">
          <mxGeometry x="1100" y="736.5" width="55" height="30" as="geometry" />
        </mxCell>
        <mxCell id="C1bDnNV0KDtn2LW1OjTP-9" value="" style="rounded=1;whiteSpace=wrap;html=1;fillColor=#dae8fc;strokeColor=#6c8ebf;strokeWidth=3;" parent="1" vertex="1">
          <mxGeometry x="490" y="280.85" width="690" height="120" as="geometry" />
        </mxCell>
        <mxCell id="C1bDnNV0KDtn2LW1OjTP-16" value="&lt;font style=&quot;font-size: 16px;&quot;&gt;Working Directory&lt;/font&gt;" style="shape=hexagon;perimeter=hexagonPerimeter2;whiteSpace=wrap;html=1;fixedSize=1;fillColor=#dae8fc;strokeColor=#6c8ebf;fontColor=#000066;fontSize=17;fontFamily=Comic Sans MS;strokeWidth=3;rounded=1;shadow=1;" parent="1" vertex="1">
          <mxGeometry x="380" y="300.85" width="140" height="80" as="geometry" />
        </mxCell>
        <mxCell id="C1bDnNV0KDtn2LW1OjTP-18" value="&lt;font style=&quot;font-size: 16px;&quot; face=&quot;Comic Sans MS&quot; color=&quot;#663300&quot;&gt;Staging Area (Index)&lt;/font&gt;" style="shape=hexagon;perimeter=hexagonPerimeter2;whiteSpace=wrap;html=1;fixedSize=1;fillColor=#FFE6CC;strokeColor=#FF9933;fontSize=17;fontFamily=Helvetica;strokeWidth=3;rounded=1;align=center;verticalAlign=middle;fontColor=default;shadow=1;" parent="1" vertex="1">
          <mxGeometry x="380" y="448.5" width="140" height="80" as="geometry" />
        </mxCell>
        <mxCell id="C1bDnNV0KDtn2LW1OjTP-19" value="&lt;font face=&quot;Comic Sans MS&quot; color=&quot;#990000&quot; style=&quot;font-size: 16px;&quot;&gt;Local&amp;nbsp;&lt;/font&gt;&lt;div style=&quot;font-size: 16px;&quot;&gt;&lt;font face=&quot;Comic Sans MS&quot; color=&quot;#990000&quot; style=&quot;font-size: 16px;&quot;&gt;Repository&lt;/font&gt;&lt;/div&gt;" style="shape=hexagon;perimeter=hexagonPerimeter2;whiteSpace=wrap;html=1;fixedSize=1;fillColor=#FFCCCC;strokeColor=#FF9999;fontSize=12;fontFamily=Helvetica;fontColor=default;strokeWidth=3;shadow=1;rounded=1;align=center;verticalAlign=middle;" parent="1" vertex="1">
          <mxGeometry x="380" y="594.41" width="140" height="80" as="geometry" />
        </mxCell>
        <mxCell id="C1bDnNV0KDtn2LW1OjTP-20" value="&lt;span style=&quot;font-family: &amp;quot;Comic Sans MS&amp;quot;; font-size: 16px;&quot;&gt;&lt;font style=&quot;font-size: 16px;&quot;&gt;Remote&amp;nbsp;&lt;/font&gt;&lt;/span&gt;&lt;div style=&quot;font-family: &amp;quot;Comic Sans MS&amp;quot;; font-size: 16px;&quot;&gt;&lt;font style=&quot;font-size: 16px;&quot;&gt;Repository&lt;/font&gt;&lt;/div&gt;" style="shape=hexagon;perimeter=hexagonPerimeter2;whiteSpace=wrap;html=1;fixedSize=1;fillColor=#d5e8d4;strokeColor=#82b366;fontColor=#336600;strokeWidth=3;shadow=1;rounded=1;" parent="1" vertex="1">
          <mxGeometry x="380" y="796.5" width="140" height="80" as="geometry" />
        </mxCell>
        <mxCell id="C1bDnNV0KDtn2LW1OjTP-122" value="" style="curved=1;endArrow=none;html=1;rounded=0;strokeWidth=8;endFill=0;strokeColor=#00CCCC;" parent="1" edge="1">
          <mxGeometry width="50" height="50" relative="1" as="geometry">
            <mxPoint x="844" y="634.41" as="sourcePoint" />
            <mxPoint x="884" y="674.41" as="targetPoint" />
            <Array as="points">
              <mxPoint x="864" y="634.41" />
              <mxPoint x="864" y="674.41" />
            </Array>
          </mxGeometry>
        </mxCell>
        <mxCell id="C1bDnNV0KDtn2LW1OjTP-111" value="" style="curved=1;endArrow=none;html=1;rounded=0;strokeWidth=8;endFill=0;strokeColor=#3399FF;" parent="1" edge="1">
          <mxGeometry width="50" height="50" relative="1" as="geometry">
            <mxPoint x="660" y="594.41" as="sourcePoint" />
            <mxPoint x="700" y="634.41" as="targetPoint" />
            <Array as="points">
              <mxPoint x="680" y="594.41" />
              <mxPoint x="680" y="634.41" />
            </Array>
          </mxGeometry>
        </mxCell>
        <mxCell id="C1bDnNV0KDtn2LW1OjTP-112" value="" style="ellipse;whiteSpace=wrap;html=1;aspect=fixed;strokeColor=none;rounded=0;strokeWidth=8;align=center;verticalAlign=middle;fontFamily=Helvetica;fontSize=11;fontColor=default;labelBackgroundColor=default;fillColor=#666666;" parent="1" vertex="1">
          <mxGeometry x="660" y="584.41" width="20" height="20" as="geometry" />
        </mxCell>
        <mxCell id="C1bDnNV0KDtn2LW1OjTP-113" value="" style="endArrow=none;html=1;rounded=0;strokeColor=#666666;strokeWidth=8;align=center;verticalAlign=middle;fontFamily=Helvetica;fontSize=11;fontColor=default;labelBackgroundColor=default;endFill=0;curved=1;" parent="1" edge="1">
          <mxGeometry width="50" height="50" relative="1" as="geometry">
            <mxPoint x="570" y="594.04" as="sourcePoint" />
            <mxPoint x="670" y="594.04" as="targetPoint" />
          </mxGeometry>
        </mxCell>
        <mxCell id="C1bDnNV0KDtn2LW1OjTP-114" value="" style="ellipse;whiteSpace=wrap;html=1;aspect=fixed;strokeColor=none;rounded=0;strokeWidth=8;align=center;verticalAlign=middle;fontFamily=Helvetica;fontSize=11;fontColor=default;labelBackgroundColor=default;fillColor=#666666;" parent="1" vertex="1">
          <mxGeometry x="560" y="584.41" width="20" height="20" as="geometry" />
        </mxCell>
        <mxCell id="C1bDnNV0KDtn2LW1OjTP-116" value="" style="endArrow=none;html=1;rounded=0;strokeColor=#666666;strokeWidth=8;align=center;verticalAlign=middle;fontFamily=Helvetica;fontSize=11;fontColor=default;labelBackgroundColor=default;endFill=0;curved=1;" parent="1" edge="1">
          <mxGeometry width="50" height="50" relative="1" as="geometry">
            <mxPoint x="670" y="593.9799999999999" as="sourcePoint" />
            <mxPoint x="840" y="594.41" as="targetPoint" />
          </mxGeometry>
        </mxCell>
        <mxCell id="C1bDnNV0KDtn2LW1OjTP-118" value="" style="ellipse;whiteSpace=wrap;html=1;aspect=fixed;strokeColor=none;rounded=0;strokeWidth=8;align=center;verticalAlign=middle;fontFamily=Helvetica;fontSize=11;fontColor=default;labelBackgroundColor=default;fillColor=#666666;" parent="1" vertex="1">
          <mxGeometry x="830" y="584.41" width="20" height="20" as="geometry" />
        </mxCell>
        <mxCell id="C1bDnNV0KDtn2LW1OjTP-119" value="" style="endArrow=none;html=1;rounded=0;strokeColor=#3399FF;strokeWidth=8;align=center;verticalAlign=middle;fontFamily=Helvetica;fontSize=11;fontColor=default;labelBackgroundColor=default;endFill=0;curved=1;" parent="1" edge="1">
          <mxGeometry width="50" height="50" relative="1" as="geometry">
            <mxPoint x="800" y="634.0699999999999" as="sourcePoint" />
            <mxPoint x="850" y="634.41" as="targetPoint" />
          </mxGeometry>
        </mxCell>
        <mxCell id="C1bDnNV0KDtn2LW1OjTP-120" value="" style="ellipse;whiteSpace=wrap;html=1;aspect=fixed;strokeColor=none;rounded=0;strokeWidth=8;align=center;verticalAlign=middle;fontFamily=Helvetica;fontSize=11;fontColor=default;labelBackgroundColor=default;fillColor=#3399FF;" parent="1" vertex="1">
          <mxGeometry x="844" y="624.41" width="20" height="20" as="geometry" />
        </mxCell>
        <mxCell id="C1bDnNV0KDtn2LW1OjTP-121" value="" style="ellipse;whiteSpace=wrap;html=1;aspect=fixed;strokeColor=none;rounded=0;strokeWidth=8;align=center;verticalAlign=middle;fontFamily=Helvetica;fontSize=11;fontColor=default;labelBackgroundColor=default;fillColor=#3399FF;" parent="1" vertex="1">
          <mxGeometry x="945" y="624.41" width="20" height="20" as="geometry" />
        </mxCell>
        <mxCell id="C1bDnNV0KDtn2LW1OjTP-123" value="" style="endArrow=none;html=1;rounded=0;strokeColor=#3399FF;strokeWidth=8;align=center;verticalAlign=middle;fontFamily=Helvetica;fontSize=11;fontColor=default;labelBackgroundColor=default;endFill=0;curved=1;" parent="1" edge="1">
          <mxGeometry width="50" height="50" relative="1" as="geometry">
            <mxPoint x="860" y="634.17" as="sourcePoint" />
            <mxPoint x="950" y="634.41" as="targetPoint" />
          </mxGeometry>
        </mxCell>
        <mxCell id="C1bDnNV0KDtn2LW1OjTP-124" value="" style="curved=1;endArrow=none;html=1;rounded=0;strokeWidth=8;endFill=0;strokeColor=#3399FF;" parent="1" edge="1">
          <mxGeometry width="50" height="50" relative="1" as="geometry">
            <mxPoint x="985" y="594.41" as="sourcePoint" />
            <mxPoint x="945" y="634.41" as="targetPoint" />
            <Array as="points">
              <mxPoint x="965" y="594.41" />
              <mxPoint x="965" y="634.41" />
            </Array>
          </mxGeometry>
        </mxCell>
        <mxCell id="C1bDnNV0KDtn2LW1OjTP-126" value="" style="endArrow=none;html=1;rounded=0;strokeColor=#666666;strokeWidth=8;align=center;verticalAlign=middle;fontFamily=Helvetica;fontSize=11;fontColor=default;labelBackgroundColor=default;endFill=0;curved=1;" parent="1" edge="1">
          <mxGeometry width="50" height="50" relative="1" as="geometry">
            <mxPoint x="844" y="594.0699999999999" as="sourcePoint" />
            <mxPoint x="1000" y="594.41" as="targetPoint" />
          </mxGeometry>
        </mxCell>
        <mxCell id="C1bDnNV0KDtn2LW1OjTP-128" value="" style="ellipse;whiteSpace=wrap;html=1;aspect=fixed;strokeColor=none;rounded=0;strokeWidth=8;align=center;verticalAlign=middle;fontFamily=Helvetica;fontSize=11;fontColor=default;labelBackgroundColor=default;fillColor=#c2a3a3;" parent="1" vertex="1">
          <mxGeometry x="1060" y="584.41" width="20" height="20" as="geometry" />
        </mxCell>
        <mxCell id="C1bDnNV0KDtn2LW1OjTP-129" value="" style="ellipse;whiteSpace=wrap;html=1;aspect=fixed;strokeColor=none;rounded=0;strokeWidth=8;align=center;verticalAlign=middle;fontFamily=Helvetica;fontSize=11;fontColor=default;labelBackgroundColor=default;fillColor=#00CCCC;gradientColor=none;" parent="1" vertex="1">
          <mxGeometry x="880" y="664.41" width="20" height="20" as="geometry" />
        </mxCell>
        <mxCell id="C1bDnNV0KDtn2LW1OjTP-130" value="" style="endArrow=none;html=1;rounded=0;strokeColor=#00CCCC;strokeWidth=8;align=center;verticalAlign=middle;fontFamily=Helvetica;fontSize=11;fontColor=default;labelBackgroundColor=default;endFill=0;curved=1;" parent="1" edge="1">
          <mxGeometry width="50" height="50" relative="1" as="geometry">
            <mxPoint x="895" y="674.12" as="sourcePoint" />
            <mxPoint x="985" y="674.36" as="targetPoint" />
          </mxGeometry>
        </mxCell>
        <mxCell id="C1bDnNV0KDtn2LW1OjTP-131" value="" style="ellipse;whiteSpace=wrap;html=1;aspect=fixed;strokeColor=none;rounded=0;strokeWidth=8;align=center;verticalAlign=middle;fontFamily=Helvetica;fontSize=11;fontColor=default;labelBackgroundColor=default;fillColor=#00CCCC;" parent="1" vertex="1">
          <mxGeometry x="980" y="664.41" width="20" height="20" as="geometry" />
        </mxCell>
        <mxCell id="C1bDnNV0KDtn2LW1OjTP-332" value="" style="endArrow=none;html=1;rounded=0;strokeColor=#3399FF;strokeWidth=8;align=center;verticalAlign=middle;fontFamily=Helvetica;fontSize=11;fontColor=default;labelBackgroundColor=default;endFill=0;curved=1;" parent="1" edge="1">
          <mxGeometry width="50" height="50" relative="1" as="geometry">
            <mxPoint x="960" y="634.1099999999999" as="sourcePoint" />
            <mxPoint x="1100" y="634.41" as="targetPoint" />
          </mxGeometry>
        </mxCell>
        <mxCell id="C1bDnNV0KDtn2LW1OjTP-335" value="" style="curved=1;endArrow=none;html=1;rounded=0;strokeWidth=8;endFill=0;strokeColor=#00CCCC;" parent="1" edge="1">
          <mxGeometry width="50" height="50" relative="1" as="geometry">
            <mxPoint x="844" y="836.5" as="sourcePoint" />
            <mxPoint x="884" y="876.5" as="targetPoint" />
            <Array as="points">
              <mxPoint x="864" y="836.5" />
              <mxPoint x="864" y="876.5" />
            </Array>
          </mxGeometry>
        </mxCell>
        <mxCell id="C1bDnNV0KDtn2LW1OjTP-336" value="" style="curved=1;endArrow=none;html=1;rounded=0;strokeWidth=8;endFill=0;strokeColor=#3399FF;" parent="1" edge="1">
          <mxGeometry width="50" height="50" relative="1" as="geometry">
            <mxPoint x="660" y="796.5" as="sourcePoint" />
            <mxPoint x="700" y="836.5" as="targetPoint" />
            <Array as="points">
              <mxPoint x="680" y="796.5" />
              <mxPoint x="680" y="836.5" />
            </Array>
          </mxGeometry>
        </mxCell>
        <mxCell id="C1bDnNV0KDtn2LW1OjTP-337" value="" style="ellipse;whiteSpace=wrap;html=1;aspect=fixed;strokeColor=none;rounded=0;strokeWidth=8;align=center;verticalAlign=middle;fontFamily=Helvetica;fontSize=11;fontColor=default;labelBackgroundColor=default;fillColor=#666666;" parent="1" vertex="1">
          <mxGeometry x="660" y="786.5" width="20" height="20" as="geometry" />
        </mxCell>
        <mxCell id="C1bDnNV0KDtn2LW1OjTP-338" value="" style="endArrow=none;html=1;rounded=0;strokeColor=#666666;strokeWidth=8;align=center;verticalAlign=middle;fontFamily=Helvetica;fontSize=11;fontColor=default;labelBackgroundColor=default;endFill=0;curved=1;" parent="1" edge="1">
          <mxGeometry width="50" height="50" relative="1" as="geometry">
            <mxPoint x="570" y="796.13" as="sourcePoint" />
            <mxPoint x="670" y="796.13" as="targetPoint" />
          </mxGeometry>
        </mxCell>
        <mxCell id="C1bDnNV0KDtn2LW1OjTP-339" value="" style="ellipse;whiteSpace=wrap;html=1;aspect=fixed;strokeColor=none;rounded=0;strokeWidth=8;align=center;verticalAlign=middle;fontFamily=Helvetica;fontSize=11;fontColor=default;labelBackgroundColor=default;fillColor=#666666;" parent="1" vertex="1">
          <mxGeometry x="560" y="786.5" width="20" height="20" as="geometry" />
        </mxCell>
        <mxCell id="C1bDnNV0KDtn2LW1OjTP-340" value="" style="ellipse;whiteSpace=wrap;html=1;aspect=fixed;strokeColor=none;rounded=0;strokeWidth=8;align=center;verticalAlign=middle;fontFamily=Helvetica;fontSize=11;fontColor=default;labelBackgroundColor=default;fillColor=#3399FF;" parent="1" vertex="1">
          <mxGeometry x="790" y="826.5" width="20" height="20" as="geometry" />
        </mxCell>
        <mxCell id="C1bDnNV0KDtn2LW1OjTP-341" value="" style="endArrow=none;html=1;rounded=0;strokeColor=#666666;strokeWidth=8;align=center;verticalAlign=middle;fontFamily=Helvetica;fontSize=11;fontColor=default;labelBackgroundColor=default;endFill=0;curved=1;" parent="1" edge="1">
          <mxGeometry width="50" height="50" relative="1" as="geometry">
            <mxPoint x="670" y="796.0699999999999" as="sourcePoint" />
            <mxPoint x="840" y="796.5" as="targetPoint" />
          </mxGeometry>
        </mxCell>
        <mxCell id="C1bDnNV0KDtn2LW1OjTP-342" value="" style="endArrow=none;html=1;rounded=0;strokeColor=#3399FF;strokeWidth=8;align=center;verticalAlign=middle;fontFamily=Helvetica;fontSize=11;fontColor=default;labelBackgroundColor=default;endFill=0;curved=1;" parent="1" edge="1">
          <mxGeometry width="50" height="50" relative="1" as="geometry">
            <mxPoint x="700" y="836.43" as="sourcePoint" />
            <mxPoint x="800" y="836.43" as="targetPoint" />
          </mxGeometry>
        </mxCell>
        <mxCell id="C1bDnNV0KDtn2LW1OjTP-343" value="" style="ellipse;whiteSpace=wrap;html=1;aspect=fixed;strokeColor=none;rounded=0;strokeWidth=8;align=center;verticalAlign=middle;fontFamily=Helvetica;fontSize=11;fontColor=default;labelBackgroundColor=default;fillColor=#666666;" parent="1" vertex="1">
          <mxGeometry x="830" y="786.5" width="20" height="20" as="geometry" />
        </mxCell>
        <mxCell id="C1bDnNV0KDtn2LW1OjTP-344" value="" style="endArrow=none;html=1;rounded=0;strokeColor=#3399FF;strokeWidth=8;align=center;verticalAlign=middle;fontFamily=Helvetica;fontSize=11;fontColor=default;labelBackgroundColor=default;endFill=0;curved=1;" parent="1" edge="1">
          <mxGeometry width="50" height="50" relative="1" as="geometry">
            <mxPoint x="800" y="836.16" as="sourcePoint" />
            <mxPoint x="850" y="836.5" as="targetPoint" />
          </mxGeometry>
        </mxCell>
        <mxCell id="C1bDnNV0KDtn2LW1OjTP-345" value="" style="ellipse;whiteSpace=wrap;html=1;aspect=fixed;strokeColor=none;rounded=0;strokeWidth=8;align=center;verticalAlign=middle;fontFamily=Helvetica;fontSize=11;fontColor=default;labelBackgroundColor=default;fillColor=#3399FF;" parent="1" vertex="1">
          <mxGeometry x="844" y="826.5" width="20" height="20" as="geometry" />
        </mxCell>
        <mxCell id="C1bDnNV0KDtn2LW1OjTP-347" value="" style="endArrow=none;html=1;rounded=0;strokeColor=#3399FF;strokeWidth=8;align=center;verticalAlign=middle;fontFamily=Helvetica;fontSize=11;fontColor=default;labelBackgroundColor=default;endFill=0;curved=1;" parent="1" edge="1">
          <mxGeometry width="50" height="50" relative="1" as="geometry">
            <mxPoint x="860" y="836.26" as="sourcePoint" />
            <mxPoint x="950" y="836.5" as="targetPoint" />
          </mxGeometry>
        </mxCell>
        <mxCell id="C1bDnNV0KDtn2LW1OjTP-349" value="" style="ellipse;whiteSpace=wrap;html=1;aspect=fixed;strokeColor=none;rounded=0;strokeWidth=8;align=center;verticalAlign=middle;fontFamily=Helvetica;fontSize=11;fontColor=default;labelBackgroundColor=default;fillColor=#666666;" parent="1" vertex="1">
          <mxGeometry x="985" y="786.5" width="20" height="20" as="geometry" />
        </mxCell>
        <mxCell id="C1bDnNV0KDtn2LW1OjTP-351" value="" style="endArrow=none;html=1;rounded=0;strokeColor=#666666;strokeWidth=8;align=center;verticalAlign=middle;fontFamily=Helvetica;fontSize=11;fontColor=default;labelBackgroundColor=default;endFill=0;curved=1;" parent="1" edge="1">
          <mxGeometry width="50" height="50" relative="1" as="geometry">
            <mxPoint x="990" y="796.21" as="sourcePoint" />
            <mxPoint x="1070" y="796.5" as="targetPoint" />
          </mxGeometry>
        </mxCell>
        <mxCell id="C1bDnNV0KDtn2LW1OjTP-352" value="" style="ellipse;whiteSpace=wrap;html=1;aspect=fixed;strokeColor=none;rounded=0;strokeWidth=8;align=center;verticalAlign=middle;fontFamily=Helvetica;fontSize=11;fontColor=default;labelBackgroundColor=default;fillColor=#666666;" parent="1" vertex="1">
          <mxGeometry x="1060" y="786.5" width="20" height="20" as="geometry" />
        </mxCell>
        <mxCell id="C1bDnNV0KDtn2LW1OjTP-353" value="" style="ellipse;whiteSpace=wrap;html=1;aspect=fixed;strokeColor=none;rounded=0;strokeWidth=8;align=center;verticalAlign=middle;fontFamily=Helvetica;fontSize=11;fontColor=default;labelBackgroundColor=default;fillColor=#00CCCC;gradientColor=none;" parent="1" vertex="1">
          <mxGeometry x="880" y="866.5" width="20" height="20" as="geometry" />
        </mxCell>
        <mxCell id="C1bDnNV0KDtn2LW1OjTP-354" value="" style="endArrow=none;html=1;rounded=0;strokeColor=#00CCCC;strokeWidth=8;align=center;verticalAlign=middle;fontFamily=Helvetica;fontSize=11;fontColor=default;labelBackgroundColor=default;endFill=0;curved=1;" parent="1" edge="1">
          <mxGeometry width="50" height="50" relative="1" as="geometry">
            <mxPoint x="895" y="876.21" as="sourcePoint" />
            <mxPoint x="985" y="876.45" as="targetPoint" />
          </mxGeometry>
        </mxCell>
        <mxCell id="C1bDnNV0KDtn2LW1OjTP-355" value="" style="ellipse;whiteSpace=wrap;html=1;aspect=fixed;strokeColor=none;rounded=0;strokeWidth=8;align=center;verticalAlign=middle;fontFamily=Helvetica;fontSize=11;fontColor=default;labelBackgroundColor=default;fillColor=#00CCCC;" parent="1" vertex="1">
          <mxGeometry x="980" y="866.5" width="20" height="20" as="geometry" />
        </mxCell>
        <mxCell id="C1bDnNV0KDtn2LW1OjTP-356" value="" style="endArrow=none;html=1;rounded=0;strokeColor=#a4d0e1;strokeWidth=8;align=center;verticalAlign=middle;fontFamily=Helvetica;fontSize=11;fontColor=default;labelBackgroundColor=default;endFill=0;curved=1;" parent="1" edge="1">
          <mxGeometry width="50" height="50" relative="1" as="geometry">
            <mxPoint x="960" y="836.1999999999999" as="sourcePoint" />
            <mxPoint x="1100" y="836.5" as="targetPoint" />
          </mxGeometry>
        </mxCell>
        <mxCell id="C1bDnNV0KDtn2LW1OjTP-357" value="" style="ellipse;whiteSpace=wrap;html=1;aspect=fixed;strokeColor=none;rounded=0;strokeWidth=8;align=center;verticalAlign=middle;fontFamily=Helvetica;fontSize=11;fontColor=default;labelBackgroundColor=default;fillColor=#A4D0E1;" parent="1" vertex="1">
          <mxGeometry x="1090" y="826.5" width="20" height="20" as="geometry" />
        </mxCell>
        <mxCell id="C1bDnNV0KDtn2LW1OjTP-348" value="" style="curved=1;endArrow=none;html=1;rounded=0;strokeWidth=8;endFill=0;strokeColor=#3399FF;" parent="1" edge="1">
          <mxGeometry width="50" height="50" relative="1" as="geometry">
            <mxPoint x="985" y="796.5" as="sourcePoint" />
            <mxPoint x="945" y="836.5" as="targetPoint" />
            <Array as="points">
              <mxPoint x="965" y="796.5" />
              <mxPoint x="965" y="836.5" />
            </Array>
          </mxGeometry>
        </mxCell>
        <mxCell id="C1bDnNV0KDtn2LW1OjTP-346" value="" style="ellipse;whiteSpace=wrap;html=1;aspect=fixed;strokeColor=none;rounded=0;strokeWidth=8;align=center;verticalAlign=middle;fontFamily=Helvetica;fontSize=11;fontColor=default;labelBackgroundColor=default;fillColor=#3399FF;" parent="1" vertex="1">
          <mxGeometry x="945" y="826.5" width="20" height="20" as="geometry" />
        </mxCell>
        <mxCell id="C1bDnNV0KDtn2LW1OjTP-350" value="" style="endArrow=none;html=1;rounded=0;strokeColor=#666666;strokeWidth=8;align=center;verticalAlign=middle;fontFamily=Helvetica;fontSize=11;fontColor=default;labelBackgroundColor=default;endFill=0;curved=1;" parent="1" edge="1">
          <mxGeometry width="50" height="50" relative="1" as="geometry">
            <mxPoint x="844" y="796.16" as="sourcePoint" />
            <mxPoint x="1000" y="796.5" as="targetPoint" />
          </mxGeometry>
        </mxCell>
        <mxCell id="C1bDnNV0KDtn2LW1OjTP-127" value="" style="endArrow=none;html=1;rounded=0;strokeColor=#C2A3A3;strokeWidth=8;align=center;verticalAlign=middle;fontFamily=Helvetica;fontSize=11;fontColor=default;labelBackgroundColor=default;endFill=0;curved=1;" parent="1" edge="1">
          <mxGeometry width="50" height="50" relative="1" as="geometry">
            <mxPoint x="990" y="594.12" as="sourcePoint" />
            <mxPoint x="1070" y="594.41" as="targetPoint" />
          </mxGeometry>
        </mxCell>
        <mxCell id="C1bDnNV0KDtn2LW1OjTP-125" value="" style="ellipse;whiteSpace=wrap;html=1;aspect=fixed;strokeColor=none;rounded=0;strokeWidth=8;align=center;verticalAlign=middle;fontFamily=Helvetica;fontSize=11;fontColor=default;labelBackgroundColor=default;fillColor=#666666;" parent="1" vertex="1">
          <mxGeometry x="985" y="584.41" width="20" height="20" as="geometry" />
        </mxCell>
        <mxCell id="hJRkpqd8FvlUz38hZ03f-14" value="&lt;font style=&quot;font-size: 13px;&quot; face=&quot;Verdana&quot;&gt;fetch&lt;/font&gt;" style="text;html=1;align=center;verticalAlign=middle;whiteSpace=wrap;rounded=1;strokeColor=#3a2f3c;fillColor=#e5c3af;opacity=70;strokeWidth=2;perimeterSpacing=0;" vertex="1" parent="1">
          <mxGeometry x="1015" y="654.41" width="55" height="30" as="geometry" />
        </mxCell>
        <mxCell id="hJRkpqd8FvlUz38hZ03f-13" value="" style="shape=flexArrow;endArrow=classic;html=1;rounded=0;fillColor=#FFADAD;shadow=1;flowAnimation=0;gradientColor=#B6E8B3;gradientDirection=south;strokeColor=#37363f;align=center;verticalAlign=middle;fontFamily=Helvetica;fontSize=11;fontColor=default;labelBackgroundColor=default;exitX=0.5;exitY=0;exitDx=0;exitDy=0;strokeWidth=1.5;entryX=0.5;entryY=0;entryDx=0;entryDy=0;" edge="1" parent="1">
          <mxGeometry width="50" height="50" relative="1" as="geometry">
            <mxPoint x="1070" y="780.5" as="sourcePoint" />
            <mxPoint x="1069.6599999999999" y="606.5" as="targetPoint" />
          </mxGeometry>
        </mxCell>
        <mxCell id="hJRkpqd8FvlUz38hZ03f-34" value="" style="ellipse;whiteSpace=wrap;html=1;aspect=fixed;strokeColor=none;rounded=0;strokeWidth=8;align=center;verticalAlign=middle;fontFamily=Helvetica;fontSize=11;fontColor=default;labelBackgroundColor=default;fillColor=#00CCCC;" vertex="1" parent="1">
          <mxGeometry x="980" y="516" width="20" height="20" as="geometry" />
        </mxCell>
        <mxCell id="hJRkpqd8FvlUz38hZ03f-41" value="&lt;font face=&quot;Verdana&quot;&gt;&lt;span style=&quot;font-size: 13px;&quot;&gt;reset&amp;nbsp;&lt;/span&gt;&lt;/font&gt;&lt;div&gt;&lt;span style=&quot;font-size: 13px; font-family: Verdana; background-color: initial;&quot;&gt;--soft&lt;/span&gt;&lt;/div&gt;" style="text;html=1;align=center;verticalAlign=middle;whiteSpace=wrap;rounded=1;strokeColor=#3a2f3c;fillColor=#FFADAD;opacity=70;strokeWidth=2;perimeterSpacing=0;" vertex="1" parent="1">
          <mxGeometry x="925" y="694.41" width="52.25" height="42.09" as="geometry" />
        </mxCell>
        <mxCell id="hJRkpqd8FvlUz38hZ03f-40" value="" style="shape=flexArrow;endArrow=classic;html=1;rounded=0;fillColor=#fdaeaf;shadow=1;flowAnimation=0;gradientColor=none;gradientDirection=south;strokeColor=#37363f;align=center;verticalAlign=middle;fontFamily=Helvetica;fontSize=11;fontColor=default;labelBackgroundColor=default;strokeWidth=1.5;" edge="1" parent="1">
          <mxGeometry width="50" height="50" relative="1" as="geometry">
            <mxPoint x="983" y="694.65" as="sourcePoint" />
            <mxPoint x="897" y="694.5" as="targetPoint" />
          </mxGeometry>
        </mxCell>
        <mxCell id="hJRkpqd8FvlUz38hZ03f-49" value="" style="endArrow=classic;html=1;rounded=0;" edge="1" parent="1">
          <mxGeometry width="50" height="50" relative="1" as="geometry">
            <mxPoint x="990" y="706.5" as="sourcePoint" />
            <mxPoint x="990" y="684.41" as="targetPoint" />
          </mxGeometry>
        </mxCell>
        <mxCell id="hJRkpqd8FvlUz38hZ03f-50" value="" style="endArrow=classic;html=1;rounded=0;exitX=0.089;exitY=1;exitDx=0;exitDy=0;exitPerimeter=0;entryX=0.778;entryY=0.091;entryDx=0;entryDy=0;entryPerimeter=0;" edge="1" parent="1" source="hJRkpqd8FvlUz38hZ03f-188" target="C1bDnNV0KDtn2LW1OjTP-125">
          <mxGeometry width="50" height="50" relative="1" as="geometry">
            <mxPoint x="994.72" y="566.5" as="sourcePoint" />
            <mxPoint x="994.72" y="584.41" as="targetPoint" />
          </mxGeometry>
        </mxCell>
        <mxCell id="hJRkpqd8FvlUz38hZ03f-51" value="" style="endArrow=classic;html=1;rounded=0;exitX=0.1;exitY=1.072;exitDx=0;exitDy=0;exitPerimeter=0;entryX=0.7;entryY=-0.041;entryDx=0;entryDy=0;entryPerimeter=0;" edge="1" parent="1" source="hJRkpqd8FvlUz38hZ03f-189" target="C1bDnNV0KDtn2LW1OjTP-333">
          <mxGeometry width="50" height="50" relative="1" as="geometry">
            <mxPoint x="1099.62" y="604.41" as="sourcePoint" />
            <mxPoint x="1105" y="624.5" as="targetPoint" />
          </mxGeometry>
        </mxCell>
        <mxCell id="hJRkpqd8FvlUz38hZ03f-70" value="" style="ellipse;whiteSpace=wrap;html=1;aspect=fixed;strokeColor=none;rounded=0;strokeWidth=8;align=center;verticalAlign=middle;fontFamily=Helvetica;fontSize=11;fontColor=default;labelBackgroundColor=default;fillColor=#c1bcdb;" vertex="1" parent="1">
          <mxGeometry x="1147" y="624.41" width="20" height="20" as="geometry" />
        </mxCell>
        <mxCell id="hJRkpqd8FvlUz38hZ03f-71" value="" style="endArrow=none;html=1;rounded=0;strokeColor=#C1BCDB;strokeWidth=8;align=center;verticalAlign=middle;fontFamily=Helvetica;fontSize=11;fontColor=default;labelBackgroundColor=default;endFill=0;curved=1;" edge="1" parent="1">
          <mxGeometry width="50" height="50" relative="1" as="geometry">
            <mxPoint x="1100" y="634.27" as="sourcePoint" />
            <mxPoint x="1150" y="634.27" as="targetPoint" />
          </mxGeometry>
        </mxCell>
        <mxCell id="C1bDnNV0KDtn2LW1OjTP-333" value="" style="ellipse;whiteSpace=wrap;html=1;aspect=fixed;strokeColor=none;rounded=0;strokeWidth=8;align=center;verticalAlign=middle;fontFamily=Helvetica;fontSize=11;fontColor=default;labelBackgroundColor=default;fillColor=#3399FF;" parent="1" vertex="1">
          <mxGeometry x="1090" y="624.41" width="20" height="20" as="geometry" />
        </mxCell>
        <mxCell id="hJRkpqd8FvlUz38hZ03f-72" value="" style="shape=step;perimeter=stepPerimeter;whiteSpace=wrap;html=1;fixedSize=1;size=10;fillColor=#3399FF;strokeColor=none;" vertex="1" parent="1">
          <mxGeometry x="1100" y="482" width="30" height="8" as="geometry" />
        </mxCell>
        <mxCell id="hJRkpqd8FvlUz38hZ03f-78" value="" style="shape=step;perimeter=stepPerimeter;whiteSpace=wrap;html=1;fixedSize=1;size=10;fillColor=#3399FF;strokeColor=none;" vertex="1" parent="1">
          <mxGeometry x="1130" y="482" width="30" height="8" as="geometry" />
        </mxCell>
        <mxCell id="hJRkpqd8FvlUz38hZ03f-69" value="" style="ellipse;whiteSpace=wrap;html=1;aspect=fixed;strokeColor=none;rounded=0;strokeWidth=8;align=center;verticalAlign=middle;fontFamily=Helvetica;fontSize=11;fontColor=default;labelBackgroundColor=default;fillColor=#3399FF;" vertex="1" parent="1">
          <mxGeometry x="1090" y="476" width="20" height="20" as="geometry" />
        </mxCell>
        <mxCell id="hJRkpqd8FvlUz38hZ03f-80" value="&lt;font style=&quot;font-size: 13px;&quot; face=&quot;Verdana&quot;&gt;commit&lt;/font&gt;" style="text;html=1;align=center;verticalAlign=middle;whiteSpace=wrap;rounded=1;strokeColor=#3a2f3c;fillColor=#ffcaa0;opacity=70;strokeWidth=2;perimeterSpacing=0;glass=0;" vertex="1" parent="1">
          <mxGeometry x="1160" y="506" width="60" height="30" as="geometry" />
        </mxCell>
        <mxCell id="hJRkpqd8FvlUz38hZ03f-79" value="" style="shape=flexArrow;endArrow=classic;html=1;rounded=0;fillColor=#FFD49C;shadow=1;flowAnimation=0;gradientColor=#FFADAD;gradientDirection=south;entryX=0.5;entryY=0;entryDx=0;entryDy=0;strokeColor=#37363f;strokeWidth=1.5;" edge="1" parent="1">
          <mxGeometry width="50" height="50" relative="1" as="geometry">
            <mxPoint x="1156.76" y="499.5" as="sourcePoint" />
            <mxPoint x="1157.1799999999998" y="621" as="targetPoint" />
          </mxGeometry>
        </mxCell>
        <mxCell id="hJRkpqd8FvlUz38hZ03f-82" value="&lt;font face=&quot;Verdana&quot;&gt;&lt;span style=&quot;font-size: 13px;&quot;&gt;merge&lt;/span&gt;&lt;/font&gt;" style="text;html=1;align=center;verticalAlign=middle;whiteSpace=wrap;rounded=1;strokeColor=#3a2f3c;fillColor=#FFADAD;opacity=70;strokeWidth=2;perimeterSpacing=0;fontFamily=Helvetica;fontSize=12;fontColor=default;" vertex="1" parent="1">
          <mxGeometry x="902.5" y="594.41" width="52.5" height="24" as="geometry" />
        </mxCell>
        <mxCell id="hJRkpqd8FvlUz38hZ03f-81" value="&lt;font face=&quot;Verdana&quot;&gt;&lt;span style=&quot;font-size: 13px;&quot;&gt;branch&lt;/span&gt;&lt;/font&gt;" style="text;html=1;align=center;verticalAlign=middle;whiteSpace=wrap;rounded=1;strokeColor=#3a2f3c;fillColor=#FFADAD;opacity=70;strokeWidth=2;perimeterSpacing=0;fontFamily=Helvetica;fontSize=12;fontColor=default;" vertex="1" parent="1">
          <mxGeometry x="614" y="607.3199999999999" width="55" height="26" as="geometry" />
        </mxCell>
        <mxCell id="hJRkpqd8FvlUz38hZ03f-65" value="" style="ellipse;whiteSpace=wrap;html=1;aspect=fixed;strokeColor=none;rounded=0;strokeWidth=8;align=center;verticalAlign=middle;fontFamily=Helvetica;fontSize=11;fontColor=default;labelBackgroundColor=default;fillColor=#c1cfdb;" vertex="1" parent="1">
          <mxGeometry x="1147" y="476" width="20" height="20" as="geometry" />
        </mxCell>
        <mxCell id="hJRkpqd8FvlUz38hZ03f-95" value="" style="shape=step;perimeter=stepPerimeter;whiteSpace=wrap;html=1;fixedSize=1;size=10;fillColor=#00CCCC;strokeColor=none;" vertex="1" parent="1">
          <mxGeometry x="990" y="522" width="50" height="8" as="geometry" />
        </mxCell>
        <mxCell id="hJRkpqd8FvlUz38hZ03f-96" value="" style="shape=step;perimeter=stepPerimeter;whiteSpace=wrap;html=1;fixedSize=1;size=10;fillColor=#00CCCC;strokeColor=none;" vertex="1" parent="1">
          <mxGeometry x="1040" y="522" width="80" height="8" as="geometry" />
        </mxCell>
        <mxCell id="hJRkpqd8FvlUz38hZ03f-93" value="" style="ellipse;whiteSpace=wrap;html=1;aspect=fixed;strokeColor=none;rounded=0;strokeWidth=8;align=center;verticalAlign=middle;fontFamily=Helvetica;fontSize=11;fontColor=default;labelBackgroundColor=default;fillColor=#b2decb;" vertex="1" parent="1">
          <mxGeometry x="1110" y="516" width="20" height="20" as="geometry" />
        </mxCell>
        <mxCell id="hJRkpqd8FvlUz38hZ03f-104" value="" style="curved=1;endArrow=none;html=1;rounded=0;strokeWidth=8;endFill=0;strokeColor=#00CCCC;" edge="1" parent="1">
          <mxGeometry width="50" height="50" relative="1" as="geometry">
            <mxPoint x="844" y="340.85" as="sourcePoint" />
            <mxPoint x="884" y="380.85" as="targetPoint" />
            <Array as="points">
              <mxPoint x="864" y="340.85" />
              <mxPoint x="864" y="380.85" />
            </Array>
          </mxGeometry>
        </mxCell>
        <mxCell id="hJRkpqd8FvlUz38hZ03f-105" value="" style="curved=1;endArrow=none;html=1;rounded=0;strokeWidth=8;endFill=0;strokeColor=#3399FF;" edge="1" parent="1">
          <mxGeometry width="50" height="50" relative="1" as="geometry">
            <mxPoint x="660" y="300.85" as="sourcePoint" />
            <mxPoint x="700" y="340.85" as="targetPoint" />
            <Array as="points">
              <mxPoint x="680" y="300.85" />
              <mxPoint x="680" y="340.85" />
            </Array>
          </mxGeometry>
        </mxCell>
        <mxCell id="hJRkpqd8FvlUz38hZ03f-107" value="" style="endArrow=none;html=1;rounded=0;strokeColor=#666666;strokeWidth=8;align=center;verticalAlign=middle;fontFamily=Helvetica;fontSize=11;fontColor=default;labelBackgroundColor=default;endFill=0;curved=1;" edge="1" parent="1">
          <mxGeometry width="50" height="50" relative="1" as="geometry">
            <mxPoint x="570" y="300.85" as="sourcePoint" />
            <mxPoint x="670" y="300.85" as="targetPoint" />
          </mxGeometry>
        </mxCell>
        <mxCell id="hJRkpqd8FvlUz38hZ03f-111" value="" style="endArrow=none;html=1;rounded=0;strokeColor=#3399FF;strokeWidth=8;align=center;verticalAlign=middle;fontFamily=Helvetica;fontSize=11;fontColor=default;labelBackgroundColor=default;endFill=0;curved=1;" edge="1" parent="1">
          <mxGeometry width="50" height="50" relative="1" as="geometry">
            <mxPoint x="700" y="340.78" as="sourcePoint" />
            <mxPoint x="800" y="340.78" as="targetPoint" />
          </mxGeometry>
        </mxCell>
        <mxCell id="hJRkpqd8FvlUz38hZ03f-117" value="" style="curved=1;endArrow=none;html=1;rounded=0;strokeWidth=8;endFill=0;strokeColor=#3399FF;" edge="1" parent="1">
          <mxGeometry width="50" height="50" relative="1" as="geometry">
            <mxPoint x="990" y="300.85" as="sourcePoint" />
            <mxPoint x="950" y="340.85" as="targetPoint" />
            <Array as="points">
              <mxPoint x="970" y="300.85" />
              <mxPoint x="970" y="340.85" />
            </Array>
          </mxGeometry>
        </mxCell>
        <mxCell id="hJRkpqd8FvlUz38hZ03f-116" value="" style="endArrow=none;html=1;rounded=0;strokeColor=#3399FF;strokeWidth=8;align=center;verticalAlign=middle;fontFamily=Helvetica;fontSize=11;fontColor=default;labelBackgroundColor=default;endFill=0;curved=1;" edge="1" parent="1">
          <mxGeometry width="50" height="50" relative="1" as="geometry">
            <mxPoint x="770" y="340.85" as="sourcePoint" />
            <mxPoint x="950" y="340.85" as="targetPoint" />
          </mxGeometry>
        </mxCell>
        <mxCell id="hJRkpqd8FvlUz38hZ03f-123" value="" style="endArrow=none;html=1;rounded=0;strokeColor=#00CCCC;strokeWidth=8;align=center;verticalAlign=middle;fontFamily=Helvetica;fontSize=11;fontColor=default;labelBackgroundColor=default;endFill=0;curved=1;" edge="1" parent="1" target="hJRkpqd8FvlUz38hZ03f-126">
          <mxGeometry width="50" height="50" relative="1" as="geometry">
            <mxPoint x="880" y="380.85" as="sourcePoint" />
            <mxPoint x="985" y="380.80000000000007" as="targetPoint" />
          </mxGeometry>
        </mxCell>
        <mxCell id="hJRkpqd8FvlUz38hZ03f-125" value="" style="shape=step;perimeter=stepPerimeter;whiteSpace=wrap;html=1;fixedSize=1;size=10;fillColor=#3399FF;strokeColor=none;" vertex="1" parent="1">
          <mxGeometry x="945" y="336.85" width="215" height="8" as="geometry" />
        </mxCell>
        <mxCell id="hJRkpqd8FvlUz38hZ03f-126" value="" style="shape=step;perimeter=stepPerimeter;whiteSpace=wrap;html=1;fixedSize=1;size=10;fillColor=#00CCCC;strokeColor=none;" vertex="1" parent="1">
          <mxGeometry x="990" y="376.85" width="140" height="8" as="geometry" />
        </mxCell>
        <mxCell id="hJRkpqd8FvlUz38hZ03f-110" value="" style="endArrow=none;html=1;rounded=0;strokeColor=#666666;strokeWidth=8;align=center;verticalAlign=middle;fontFamily=Helvetica;fontSize=11;fontColor=default;labelBackgroundColor=default;endFill=0;curved=1;" edge="1" parent="1">
          <mxGeometry width="50" height="50" relative="1" as="geometry">
            <mxPoint x="660" y="300.85" as="sourcePoint" />
            <mxPoint x="987.499999999985" y="300.98" as="targetPoint" />
          </mxGeometry>
        </mxCell>
        <mxCell id="hJRkpqd8FvlUz38hZ03f-171" value="" style="html=1;shadow=0;dashed=0;align=center;verticalAlign=middle;shape=mxgraph.arrows2.bendArrow;dy=5;dx=21;notch=0;arrowHead=36.91;rounded=1;flipV=0;flipH=0;direction=east;strokeWidth=1.5;strokeColor=#37363f;rotation=-90;fillColor=#BACEFC;gradientColor=none;gradientDirection=west;" vertex="1" parent="1">
          <mxGeometry x="1030" y="326.42" width="112.1" height="74.43" as="geometry" />
        </mxCell>
        <mxCell id="hJRkpqd8FvlUz38hZ03f-134" value="" style="ellipse;whiteSpace=wrap;html=1;aspect=fixed;strokeColor=none;rounded=0;strokeWidth=8;align=center;verticalAlign=middle;fontFamily=Helvetica;fontSize=11;fontColor=default;labelBackgroundColor=default;fillColor=#666666;" vertex="1" parent="1">
          <mxGeometry x="560" y="290.85" width="20" height="20" as="geometry" />
        </mxCell>
        <mxCell id="hJRkpqd8FvlUz38hZ03f-137" value="" style="shape=step;perimeter=stepPerimeter;whiteSpace=wrap;html=1;fixedSize=1;size=10;fillColor=#666666;strokeColor=none;" vertex="1" parent="1">
          <mxGeometry x="976.25" y="296.85" width="23.75" height="8" as="geometry" />
        </mxCell>
        <mxCell id="hJRkpqd8FvlUz38hZ03f-138" value="&lt;font face=&quot;Verdana&quot;&gt;&lt;span style=&quot;font-size: 13px;&quot;&gt;init&lt;/span&gt;&lt;/font&gt;" style="text;html=1;align=center;verticalAlign=middle;whiteSpace=wrap;rounded=1;strokeColor=#3a2f3c;fillColor=#BACEFC;opacity=70;strokeWidth=2;perimeterSpacing=0;fontFamily=Helvetica;fontSize=12;fontColor=default;" vertex="1" parent="1">
          <mxGeometry x="545" y="314.85" width="50" height="31.65" as="geometry" />
        </mxCell>
        <mxCell id="hJRkpqd8FvlUz38hZ03f-140" value="" style="shape=step;perimeter=stepPerimeter;whiteSpace=wrap;html=1;fixedSize=1;size=10;fillColor=#666666;strokeColor=none;opacity=30;" vertex="1" parent="1">
          <mxGeometry x="1000" y="296.85" width="70" height="8" as="geometry" />
        </mxCell>
        <mxCell id="hJRkpqd8FvlUz38hZ03f-149" value="" style="ellipse;whiteSpace=wrap;html=1;aspect=fixed;strokeColor=none;rounded=0;strokeWidth=8;align=center;verticalAlign=middle;fontFamily=Helvetica;fontSize=11;fontColor=default;labelBackgroundColor=default;fillColor=#a7d0fd;" vertex="1" parent="1">
          <mxGeometry x="790" y="330.85" width="20" height="20" as="geometry" />
        </mxCell>
        <mxCell id="hJRkpqd8FvlUz38hZ03f-173" value="" style="html=1;shadow=0;dashed=0;align=center;verticalAlign=middle;shape=mxgraph.arrows2.bendArrow;dy=5;dx=15;notch=0;arrowHead=10;rounded=1;flipV=0;flipH=1;direction=north;strokeWidth=1.5;strokeColor=#37363f;rotation=-90;fillColor=#BACEFC;gradientColor=#d2d1b1;" vertex="1" parent="1">
          <mxGeometry x="1079.2" y="429.4" width="185.54" height="146.04" as="geometry" />
        </mxCell>
        <mxCell id="hJRkpqd8FvlUz38hZ03f-166" value="" style="html=1;shadow=0;dashed=0;align=center;verticalAlign=middle;shape=mxgraph.arrows2.bendArrow;dy=5;dx=0;notch=0;arrowHead=10;rounded=1;flipV=0;flipH=1;direction=north;strokeWidth=1.5;strokeColor=#37363f;gradientColor=none;gradientDirection=west;fillColor=#d2d1b1;" vertex="1" parent="1">
          <mxGeometry x="1070" y="576.5" width="175" height="140.7" as="geometry" />
        </mxCell>
        <mxCell id="hJRkpqd8FvlUz38hZ03f-3" value="" style="shape=flexArrow;endArrow=classic;html=1;rounded=0;fillColor=#FFADAD;shadow=1;flowAnimation=0;gradientColor=#B6E8B3;gradientDirection=south;entryX=0.5;entryY=0;entryDx=0;entryDy=0;strokeColor=#37363f;strokeWidth=1.5;startWidth=20;" edge="1" parent="1">
          <mxGeometry width="50" height="50" relative="1" as="geometry">
            <mxPoint x="1100" y="649.5" as="sourcePoint" />
            <mxPoint x="1100" y="821.41" as="targetPoint" />
          </mxGeometry>
        </mxCell>
        <mxCell id="hJRkpqd8FvlUz38hZ03f-174" value="" style="rounded=0;whiteSpace=wrap;html=1;strokeColor=none;fillColor=#d2d1b1;" vertex="1" parent="1">
          <mxGeometry x="1065.63" y="704.41" width="8.75" height="15" as="geometry" />
        </mxCell>
        <mxCell id="hJRkpqd8FvlUz38hZ03f-176" value="&lt;font face=&quot;Verdana&quot;&gt;&lt;span style=&quot;font-size: 13px;&quot;&gt;restore&lt;/span&gt;&lt;/font&gt;" style="text;html=1;align=center;verticalAlign=middle;whiteSpace=wrap;rounded=1;strokeColor=#3a2f3c;fillColor=#dcbdd4;opacity=70;strokeWidth=2;perimeterSpacing=0;fontFamily=Helvetica;fontSize=12;fontColor=default;" vertex="1" parent="1">
          <mxGeometry x="735" y="460" width="64" height="30" as="geometry" />
        </mxCell>
        <mxCell id="hJRkpqd8FvlUz38hZ03f-177" value="" style="rounded=0;whiteSpace=wrap;html=1;strokeColor=none;fillColor=#d2d1b1;" vertex="1" parent="1">
          <mxGeometry x="1236" y="568.41" width="8" height="16" as="geometry" />
        </mxCell>
        <mxCell id="hJRkpqd8FvlUz38hZ03f-178" value="" style="rounded=0;whiteSpace=wrap;html=1;strokeColor=none;fillColor=#BACEFC;rotation=-90;" vertex="1" parent="1">
          <mxGeometry x="1101" y="401.59" width="8.5" height="26" as="geometry" />
        </mxCell>
        <mxCell id="hJRkpqd8FvlUz38hZ03f-180" value="&lt;font style=&quot;font-size: 13px;&quot; face=&quot;Verdana&quot;&gt;add&lt;/font&gt;" style="text;html=1;align=center;verticalAlign=middle;whiteSpace=wrap;rounded=1;strokeColor=#3a2f3c;fillColor=#c4cfed;opacity=70;strokeWidth=2;perimeterSpacing=0;glass=0;" vertex="1" parent="1">
          <mxGeometry x="1160" y="354.85" width="45" height="30" as="geometry" />
        </mxCell>
        <mxCell id="hJRkpqd8FvlUz38hZ03f-164" value="" style="shape=flexArrow;endArrow=classic;html=1;rounded=0;fillColor=#BACEFC;shadow=1;flowAnimation=0;gradientColor=#FFD49C;gradientDirection=south;strokeColor=#37363f;strokeWidth=1.5;" edge="1" parent="1">
          <mxGeometry width="50" height="50" relative="1" as="geometry">
            <mxPoint x="1156.8000000000002" y="348.5" as="sourcePoint" />
            <mxPoint x="1156.8000000000002" y="470.85" as="targetPoint" />
          </mxGeometry>
        </mxCell>
        <mxCell id="hJRkpqd8FvlUz38hZ03f-186" value="" style="endArrow=classic;html=1;rounded=0;dashed=1;" edge="1" parent="1">
          <mxGeometry width="50" height="50" relative="1" as="geometry">
            <mxPoint x="889.83" y="706.5" as="sourcePoint" />
            <mxPoint x="889.83" y="684.41" as="targetPoint" />
          </mxGeometry>
        </mxCell>
        <mxCell id="hJRkpqd8FvlUz38hZ03f-188" value="&lt;font style=&quot;font-size: 9px;&quot;&gt;HEAD&lt;/font&gt;" style="text;html=1;align=center;verticalAlign=middle;whiteSpace=wrap;rounded=0;fillColor=#FFFFFF;" vertex="1" parent="1">
          <mxGeometry x="1010" y="553.41" width="30" height="15" as="geometry" />
        </mxCell>
        <mxCell id="hJRkpqd8FvlUz38hZ03f-189" value="&lt;font style=&quot;font-size: 9px;&quot;&gt;HEAD&lt;/font&gt;" style="text;html=1;align=center;verticalAlign=middle;whiteSpace=wrap;rounded=0;fillColor=#FFCCCC;" vertex="1" parent="1">
          <mxGeometry x="1105" y="594.41" width="30" height="12.91" as="geometry" />
        </mxCell>
        <mxCell id="hJRkpqd8FvlUz38hZ03f-190" value="&lt;font style=&quot;font-size: 9px;&quot;&gt;HEAD&lt;/font&gt;" style="text;html=1;align=center;verticalAlign=middle;whiteSpace=wrap;rounded=0;fillColor=#FFFFFF;" vertex="1" parent="1">
          <mxGeometry x="985" y="706.5" width="30" height="12.91" as="geometry" />
        </mxCell>
        <mxCell id="hJRkpqd8FvlUz38hZ03f-191" value="&lt;font style=&quot;font-size: 9px;&quot;&gt;HEAD~&lt;/font&gt;" style="text;html=1;align=center;verticalAlign=middle;whiteSpace=wrap;rounded=0;fillColor=#FFFFFF;" vertex="1" parent="1">
          <mxGeometry x="870" y="706.5" width="30" height="12.91" as="geometry" />
        </mxCell>
        <mxCell id="hJRkpqd8FvlUz38hZ03f-197" value="" style="endArrow=classic;html=1;rounded=0;dashed=1;exitX=0.874;exitY=1.02;exitDx=0;exitDy=0;exitPerimeter=0;entryX=0;entryY=0;entryDx=0;entryDy=0;" edge="1" parent="1" source="hJRkpqd8FvlUz38hZ03f-198" target="C1bDnNV0KDtn2LW1OjTP-112">
          <mxGeometry width="50" height="50" relative="1" as="geometry">
            <mxPoint x="664.8199999999999" y="562.3199999999999" as="sourcePoint" />
            <mxPoint x="664.8199999999999" y="584.4100000000001" as="targetPoint" />
          </mxGeometry>
        </mxCell>
        <mxCell id="hJRkpqd8FvlUz38hZ03f-198" value="&lt;font style=&quot;font-size: 9px;&quot;&gt;HEAD~&amp;lt;4&amp;gt;&lt;/font&gt;" style="text;html=1;align=center;verticalAlign=middle;whiteSpace=wrap;rounded=0;fillColor=#FFFFFF;" vertex="1" parent="1">
          <mxGeometry x="610" y="553.41" width="50" height="15" as="geometry" />
        </mxCell>
        <mxCell id="hJRkpqd8FvlUz38hZ03f-201" value="" style="ellipse;whiteSpace=wrap;html=1;aspect=fixed;strokeColor=none;rounded=0;strokeWidth=8;align=center;verticalAlign=middle;fontFamily=Helvetica;fontSize=11;fontColor=default;labelBackgroundColor=default;fillColor=#b8c2d0;" vertex="1" parent="1">
          <mxGeometry x="660" y="290.85" width="20" height="20" as="geometry" />
        </mxCell>
        <mxCell id="hJRkpqd8FvlUz38hZ03f-206" value="&lt;font face=&quot;Verdana&quot;&gt;&lt;span style=&quot;font-size: 13px;&quot;&gt;reset --hard&lt;/span&gt;&lt;/font&gt;" style="text;html=1;align=center;verticalAlign=middle;whiteSpace=wrap;rounded=1;strokeColor=#3a2f3c;fillColor=#ccc5e7;opacity=70;strokeWidth=2;perimeterSpacing=0;fontFamily=Helvetica;fontSize=12;fontColor=default;" vertex="1" parent="1">
          <mxGeometry x="575" y="365.85" width="94" height="30" as="geometry" />
        </mxCell>
        <mxCell id="hJRkpqd8FvlUz38hZ03f-202" value="" style="html=1;shadow=0;dashed=0;align=center;verticalAlign=middle;shape=mxgraph.arrows2.bendArrow;dy=5;dx=21;notch=0;arrowHead=23.13;rounded=1;flipV=0;flipH=0;direction=east;strokeWidth=1.5;strokeColor=#37363f;rotation=-90;fillColor=#BACEFC;gradientColor=#FFADAD;gradientDirection=west;" vertex="1" parent="1">
          <mxGeometry x="698.5" y="280" width="259" height="339" as="geometry" />
        </mxCell>
        <mxCell id="hJRkpqd8FvlUz38hZ03f-141" value="" style="shape=flexArrow;endArrow=classic;html=1;rounded=0;fillColor=#BACEFC;shadow=1;flowAnimation=0;gradientColor=#FFADAD;gradientDirection=south;strokeColor=#37363f;align=center;verticalAlign=middle;fontFamily=Helvetica;fontSize=11;fontColor=default;labelBackgroundColor=default;exitX=0.5;exitY=0;exitDx=0;exitDy=0;strokeWidth=1.5;" edge="1" parent="1">
          <mxGeometry width="50" height="50" relative="1" as="geometry">
            <mxPoint x="799.5" y="618.5" as="sourcePoint" />
            <mxPoint x="800" y="356.5" as="targetPoint" />
          </mxGeometry>
        </mxCell>
        <mxCell id="hJRkpqd8FvlUz38hZ03f-212" value="" style="curved=1;endArrow=classic;html=1;rounded=0;startArrow=classic;startFill=1;exitX=1;exitY=0.75;exitDx=0;exitDy=0;entryX=0.113;entryY=0.037;entryDx=0;entryDy=0;entryPerimeter=0;dashed=1;" edge="1" parent="1" target="hJRkpqd8FvlUz38hZ03f-189">
          <mxGeometry width="50" height="50" relative="1" as="geometry">
            <mxPoint x="1041.25" y="562.99" as="sourcePoint" />
            <mxPoint x="1098.75" y="589.83" as="targetPoint" />
            <Array as="points">
              <mxPoint x="1076.25" y="564.83" />
            </Array>
          </mxGeometry>
        </mxCell>
        <mxCell id="hJRkpqd8FvlUz38hZ03f-208" value="&lt;font face=&quot;Verdana&quot;&gt;&lt;span style=&quot;font-size: 13px;&quot;&gt;switch&lt;/span&gt;&lt;/font&gt;" style="text;html=1;align=center;verticalAlign=middle;whiteSpace=wrap;rounded=1;strokeColor=#3a2f3c;fillColor=#FFADAD;opacity=70;strokeWidth=2;perimeterSpacing=0;fontFamily=Helvetica;fontSize=12;fontColor=default;" vertex="1" parent="1">
          <mxGeometry x="1070" y="553.41" width="52.95" height="26" as="geometry" />
        </mxCell>
        <mxCell id="hJRkpqd8FvlUz38hZ03f-218" value="&lt;font face=&quot;Verdana&quot;&gt;&lt;span style=&quot;font-size: 13px;&quot;&gt;status&lt;/span&gt;&lt;/font&gt;" style="text;html=1;align=center;verticalAlign=middle;whiteSpace=wrap;rounded=1;strokeColor=#3a2f3c;fillColor=#f2d2ad;opacity=70;strokeWidth=2;perimeterSpacing=0;fontFamily=Helvetica;fontSize=12;fontColor=default;" vertex="1" parent="1">
          <mxGeometry x="475" y="394.17" width="55" height="40.65" as="geometry" />
        </mxCell>
        <mxCell id="hJRkpqd8FvlUz38hZ03f-220" value="" style="curved=1;endArrow=classic;html=1;rounded=0;exitX=0.625;exitY=0;exitDx=0;exitDy=0;entryX=0.625;entryY=1;entryDx=0;entryDy=0;startArrow=classic;startFill=1;" edge="1" parent="1">
          <mxGeometry width="50" height="50" relative="1" as="geometry">
            <mxPoint x="447.5" y="448.3200000000001" as="sourcePoint" />
            <mxPoint x="447.5" y="380.67" as="targetPoint" />
            <Array as="points">
              <mxPoint x="475" y="416.5" />
            </Array>
          </mxGeometry>
        </mxCell>
        <mxCell id="hJRkpqd8FvlUz38hZ03f-240" value="" style="curved=1;endArrow=none;html=1;rounded=0;strokeWidth=8;endFill=0;strokeColor=#C1BCDB;" edge="1" parent="1">
          <mxGeometry width="50" height="50" relative="1" as="geometry">
            <mxPoint x="761" y="594.41" as="sourcePoint" />
            <mxPoint x="801" y="634.41" as="targetPoint" />
            <Array as="points">
              <mxPoint x="781" y="594.41" />
              <mxPoint x="781" y="634.41" />
            </Array>
          </mxGeometry>
        </mxCell>
        <mxCell id="hJRkpqd8FvlUz38hZ03f-239" value="" style="ellipse;whiteSpace=wrap;html=1;aspect=fixed;strokeColor=none;rounded=0;strokeWidth=8;align=center;verticalAlign=middle;fontFamily=Helvetica;fontSize=11;fontColor=default;labelBackgroundColor=default;fillColor=#666666;" vertex="1" parent="1">
          <mxGeometry x="760" y="583.87" width="20" height="20" as="geometry" />
        </mxCell>
        <mxCell id="C1bDnNV0KDtn2LW1OjTP-115" value="" style="ellipse;whiteSpace=wrap;html=1;aspect=fixed;strokeColor=none;rounded=0;strokeWidth=8;align=center;verticalAlign=middle;fontFamily=Helvetica;fontSize=11;fontColor=default;labelBackgroundColor=default;fillColor=#3399FF;" parent="1" vertex="1">
          <mxGeometry x="790" y="624.41" width="20" height="20" as="geometry" />
        </mxCell>
        <mxCell id="C1bDnNV0KDtn2LW1OjTP-117" value="" style="endArrow=none;html=1;rounded=0;strokeColor=#3399FF;strokeWidth=8;align=center;verticalAlign=middle;fontFamily=Helvetica;fontSize=11;fontColor=default;labelBackgroundColor=default;endFill=0;curved=1;" parent="1" edge="1">
          <mxGeometry width="50" height="50" relative="1" as="geometry">
            <mxPoint x="700" y="634.3399999999999" as="sourcePoint" />
            <mxPoint x="800" y="634.3399999999999" as="targetPoint" />
          </mxGeometry>
        </mxCell>
        <mxCell id="hJRkpqd8FvlUz38hZ03f-243" value="&lt;font face=&quot;Verdana&quot;&gt;&lt;span style=&quot;font-size: 13px;&quot;&gt;rebase&lt;/span&gt;&lt;/font&gt;" style="text;html=1;align=center;verticalAlign=middle;whiteSpace=wrap;rounded=1;strokeColor=#3a2f3c;fillColor=#FFADAD;opacity=70;strokeWidth=2;perimeterSpacing=0;" vertex="1" parent="1">
          <mxGeometry x="694" y="635.0100000000001" width="52.25" height="27.68" as="geometry" />
        </mxCell>
        <mxCell id="hJRkpqd8FvlUz38hZ03f-242" value="" style="shape=flexArrow;endArrow=classic;html=1;rounded=0;fillColor=#fdaeaf;shadow=1;flowAnimation=0;gradientColor=none;gradientDirection=south;strokeColor=#37363f;align=center;verticalAlign=middle;fontFamily=Helvetica;fontSize=11;fontColor=default;labelBackgroundColor=default;strokeWidth=1.5;" edge="1" parent="1">
          <mxGeometry width="50" height="50" relative="1" as="geometry">
            <mxPoint x="692" y="621.44" as="sourcePoint" />
            <mxPoint x="772" y="621.31" as="targetPoint" />
          </mxGeometry>
        </mxCell>
        <mxCell id="hJRkpqd8FvlUz38hZ03f-246" value="" style="ellipse;whiteSpace=wrap;html=1;aspect=fixed;strokeColor=none;rounded=0;strokeWidth=8;align=center;verticalAlign=middle;fontFamily=Helvetica;fontSize=11;fontColor=default;labelBackgroundColor=default;fillColor=#666666;" vertex="1" parent="1">
          <mxGeometry x="760" y="786.5" width="20" height="20" as="geometry" />
        </mxCell>
        <mxCell id="hJRkpqd8FvlUz38hZ03f-250" value="&lt;font style=&quot;font-size: 13px;&quot; face=&quot;Verdana&quot;&gt;clone&lt;/font&gt;" style="text;html=1;align=center;verticalAlign=middle;whiteSpace=wrap;rounded=1;strokeColor=#3a2f3c;fillColor=#B6E8B3;opacity=70;strokeWidth=2;perimeterSpacing=0;" vertex="1" parent="1">
          <mxGeometry x="1200" y="800" width="55" height="36.5" as="geometry" />
        </mxCell>
        <mxCell id="hJRkpqd8FvlUz38hZ03f-249" value="" style="shape=flexArrow;endArrow=classic;html=1;rounded=0;fillColor=#B6E8B3;shadow=1;flowAnimation=0;gradientColor=none;gradientDirection=south;strokeColor=#37363f;align=center;verticalAlign=middle;fontFamily=Helvetica;fontSize=11;fontColor=default;labelBackgroundColor=default;strokeWidth=1.5;" edge="1" parent="1">
          <mxGeometry width="50" height="50" relative="1" as="geometry">
            <mxPoint x="1184.74" y="836.1300000000001" as="sourcePoint" />
            <mxPoint x="1280" y="836" as="targetPoint" />
          </mxGeometry>
        </mxCell>
      </root>
    </mxGraphModel>
  </diagram>
</mxfile>
